# Blender v2.93.0 OBJ File: 's symbol lol.blend'
# www.blender.org
mtllib s symbol lol.mtl
o SSymbol_Cube.002
v -0.193169 -0.443499 -0.033148
v -0.193169 -0.443499 0.033172
v -0.025036 -0.444685 0.033172
v -0.025036 -0.444685 -0.033148
v -0.007264 -0.647771 -0.033148
v -0.007264 -0.647771 0.033171
v -0.009765 -0.459946 0.033172
v -0.009765 -0.459946 -0.033148
v 0.186821 -0.446207 -0.033148
v 0.186822 -0.446207 0.033171
v -0.000583 -0.446772 0.033171
v -0.000583 -0.446772 -0.033148
v 0.188461 -0.048986 -0.033148
v 0.188461 -0.048986 0.033172
v 0.001057 -0.049552 0.033172
v 0.001057 -0.049552 -0.033148
v 0.086646 0.034699 0.033240
v 0.086646 0.034699 -0.033079
v -0.020563 -0.018616 -0.032961
v -0.020563 -0.018616 0.032985
v -0.194515 -0.023916 -0.032961
v -0.194515 -0.023916 0.032985
v 0.203706 0.197764 -0.033148
v 0.203706 0.197764 0.033172
v 0.016893 0.202419 0.033172
v 0.016893 0.202418 -0.033148
v 0.202202 0.630745 -0.033148
v 0.202202 0.630746 0.033172
v 0.016448 0.630100 0.033172
v 0.016448 0.630100 -0.033148
v -0.001324 0.833185 -0.033148
v -0.001324 0.833185 0.033172
v 0.001177 0.645361 0.033172
v 0.001177 0.645361 -0.033148
v -0.195409 0.631622 -0.033148
v -0.195409 0.631622 0.033172
v -0.008005 0.632187 0.033172
v -0.008005 0.632187 -0.033148
v -0.194104 0.199069 -0.033148
v -0.194104 0.199069 0.033172
v -0.006700 0.199635 0.033172
v -0.006700 0.199635 -0.033148
v -0.099585 0.111144 0.033240
v -0.099585 0.111144 -0.033079
vt 0.625000 0.500000
vt 0.625000 0.500000
vt 0.625000 0.750000
vt 0.625000 0.750000
vt 0.625000 0.250000
vt 0.625000 0.000000
vt 0.625000 1.000000
vt 0.625000 1.000000
vt 0.625000 0.750000
vt 0.625000 0.500000
vt 0.625000 0.250000
vt 0.625000 0.750000
vt 0.625000 1.000000
vt 0.625000 1.000000
vt 0.625000 0.000000
vt 0.625000 0.000000
vt 0.625000 0.250000
vt 0.625000 0.500000
vt 0.625000 0.500000
vt 0.625000 0.750000
vt 0.625000 0.250000
vt 0.625000 0.000000
vt 0.625000 0.500000
vt 0.625000 0.750000
vt 0.625000 0.000000
vt 0.625000 0.250000
vt 0.625000 1.000000
vt 0.625000 0.250000
vt 0.625000 0.500000
vt 0.625000 0.750000
vt 0.625000 0.750000
vt 0.625000 1.000000
vt 0.625000 1.000000
vt 0.625000 0.000000
vt 0.625000 0.500000
vt 0.625000 0.500000
vt 0.625000 0.750000
vt 0.625000 0.250000
vt 0.625000 0.000000
vt 0.625000 0.750000
vt 0.625000 1.000000
vt 0.625000 1.000000
vt 0.625000 0.000000
vt 0.625000 0.250000
vt 0.625000 0.500000
vt 0.625000 0.500000
vt 0.625000 0.750000
vt 0.625000 0.250000
vt 0.625000 0.000000
vt 0.625000 0.500000
vt 0.625000 0.750000
vt 0.625000 0.000000
vt 0.625000 0.250000
vt 0.625000 1.000000
vn 0.7069 0.7074 0.0000
vn 0.9999 -0.0105 -0.0000
vn -0.0000 0.0004 -1.0000
vn -0.0000 0.0004 1.0000
vn -0.0000 0.0000 -1.0000
vn -0.7396 -0.6731 0.0000
vn 0.0000 -0.0000 1.0000
vn -1.0000 0.0041 0.0000
vn -0.8204 0.5718 0.0000
vn 0.7203 -0.6936 -0.0000
vn -0.7015 0.7127 0.0000
vn 1.0000 -0.0041 -0.0000
vn 0.6350 0.7725 0.0000
vn -0.0000 0.0008 -1.0000
vn 0.0000 -0.0008 1.0000
vn -0.7308 0.6826 -0.0000
vn 0.6943 -0.7197 0.0000
vn 0.0000 -0.0008 -1.0000
vn -0.7069 -0.7074 0.0000
vn -1.0000 -0.0010 -0.0000
vn 1.0000 0.0035 -0.0000
vn 0.7052 0.7090 -0.0000
vn 1.0000 0.0030 -0.0000
vn 0.8204 -0.5718 0.0000
vn -0.7203 0.6936 -0.0000
vn 0.6898 -0.7240 0.0000
vn -1.0000 -0.0030 0.0000
vn -0.6811 -0.7322 0.0000
vn -0.0000 0.0008 1.0000
vn -1.0000 -0.0032 0.0000
usemtl None
s off
f 3/1/1 7/2/1 8/3/1 4/4/1
f 20/5/2 3/1/2 4/4/2 19/6/2
f 19/7/3 4/4/3 1/8/3 21/9/3
f 22/10/4 2/11/4 3/1/4 20/5/4
f 8/3/5 12/12/5 9/13/5 5/14/5
f 1/15/6 5/16/6 6/17/6 2/11/6
f 4/4/5 8/3/5 5/14/5 1/8/5
f 2/11/7 6/17/7 7/2/7 3/1/7
f 11/18/8 15/19/8 16/20/8 12/12/8
f 6/17/7 10/21/7 11/18/7 7/2/7
f 7/2/9 11/18/9 12/12/9 8/3/9
f 5/16/10 9/22/10 10/21/10 6/17/10
f 15/19/11 17/23/11 18/24/11 16/20/11
f 9/22/12 13/25/12 14/26/12 10/21/12
f 12/12/5 16/20/5 13/27/5 9/13/5
f 10/21/7 14/26/7 15/19/7 11/18/7
f 13/25/13 18/24/13 17/23/13 14/26/13
f 13/25/14 16/20/14 18/24/14
f 15/19/15 14/26/15 17/23/15
f 20/5/15 24/28/15 25/29/15 22/10/15
f 26/30/5 30/31/5 27/32/5 23/33/5
f 22/10/16 25/29/16 26/30/16 21/9/16
f 19/6/17 23/34/17 24/28/17 20/5/17
f 21/9/18 26/30/18 23/33/18 19/7/18
f 29/35/19 33/36/19 34/37/19 30/31/19
f 24/28/7 28/38/7 29/35/7 25/29/7
f 25/29/20 29/35/20 30/31/20 26/30/20
f 23/34/21 27/39/21 28/38/21 24/28/21
f 34/37/5 38/40/5 35/41/5 31/42/5
f 27/39/22 31/43/22 32/44/22 28/38/22
f 30/31/5 34/37/5 31/42/5 27/32/5
f 28/38/7 32/44/7 33/36/7 29/35/7
f 37/45/23 41/46/23 42/47/23 38/40/23
f 32/44/7 36/48/7 37/45/7 33/36/7
f 33/36/24 37/45/24 38/40/24 34/37/24
f 31/43/25 35/49/25 36/48/25 32/44/25
f 41/46/26 43/50/26 44/51/26 42/47/26
f 35/49/27 39/52/27 40/53/27 36/48/27
f 38/40/5 42/47/5 39/54/5 35/41/5
f 36/48/7 40/53/7 41/46/7 37/45/7
f 39/52/28 44/51/28 43/50/28 40/53/28
f 39/52/18 42/47/18 44/51/18
f 41/46/29 40/53/29 43/50/29
f 21/9/30 1/15/30 2/11/30 22/10/30
