# ProBuilder 4.2.3
# https://unity3d.com/unity/features/worldbuilding/probuilder
# 8/12/2021 7:55:44 PM

mtllib ./Laundromat.mtl
o Laundromat

g Laundromat
v 0 0 -10
v 0 0 10
v 0 9 -10
v 0 9 10
v -17 9 10
v -17 4.5 10
v -17 0 10
v -17 9 0
v -17 9 -10
v -17 4.5 -10
v -17 4.5 0
v -17 0 -10
v -17 0 0
v -17 9 7
v -17 3.5 7
v -17 0 7
v -17 9 4
v -17 3.5 5
v -17 0 5
v -40 0 7
v -40 3.5 7
v -40 3.5 5
v -40 0 5
v -17 1 5
v -17 1 7
v -40 1 5
v -40 1 7

vt -8 0
vt 12 0
vt -8 9
vt 12 9
vt -4 9
vt 13 9
vt 13 4.5
vt 13 0
vt -4 0
vt -2 9
vt 8 9
vt 8 4.5
vt -2 4.5
vt 8 0
vt -2 0
vt -12 4.5
vt -12 9
vt -9 9
vt -9 3.5
vt -12 0
vt -9 0
vt -6 9
vt -7 3.5
vt -7 0
vt -13 9
vt -13 12
vt 4 12
vt 4 -8
vt -13 -8
vt -13 2
vt -13 6
vt 13 2
vt 13 -8
vt -4 -8
vt -4 12
vt 13 12
vt 13 7
vt 13 3.5
vt 36 0
vt 36 3.5
vt -13 7
vt -36 9
vt -36 7
vt -13 3.5
vt -13 0
vt -36 3.5
vt -36 0
vt 36 7
vt 36 9
vt -7 1
vt -9 1
vt -13 1
vt -36 1
vt 9 0
vt 7 0
vt 9 1
vt 7 1

vn -1 0 0
vn 0 0 -1
vn 1 0 0
vn 0 -1 0
vn 0 1 0
vn 0 0 1

usemtl GridLines.003
f 6/7/2 5/6/2 4/5/2
f 2/9/2 6/7/2 4/5/2
f 2/9/2 7/8/2 6/7/2
f 5/26/4 14/25/4 4/27/4
f 17/31/4 4/27/4 14/25/4
f 8/30/4 4/27/4 17/31/4
f 8/30/4 3/28/4 4/27/4
f 8/30/4 9/29/4 3/28/4
f 1/34/5 12/33/5 13/32/5
f 2/35/5 1/34/5 13/32/5
f 19/37/5 2/35/5 13/32/5
f 16/6/5 2/35/5 19/37/5
f 2/35/5 16/6/5 7/36/5
f 2/2/1 4/4/1 3/3/1
f 3/3/1 1/1/1 2/2/1
f 9/11/3 8/10/3 11/13/3
f 11/13/3 10/12/3 9/11/3
f 10/12/3 11/13/3 13/15/3
f 13/15/3 12/14/3 10/12/3
f 14/18/3 5/17/3 6/16/3
f 6/16/3 15/19/3 14/18/3
f 15/19/3 6/16/3 7/20/3
f 7/20/3 16/21/3 15/19/3
f 17/22/3 14/18/3 15/19/3
f 15/19/3 18/23/3 17/22/3
f 8/10/3 17/22/3 18/23/3
f 18/23/3 11/13/3 8/10/3
f 11/13/3 18/23/3 19/24/3
f 19/24/3 13/15/3 11/13/3
f 21/40/2 15/38/2 16/8/2
f 16/8/2 20/39/2 21/40/2
f 22/43/4 18/41/4 15/25/4
f 15/25/4 21/42/4 22/43/4
f 23/47/6 19/45/6 18/44/6
f 18/44/6 22/46/6 23/47/6
f 27/49/5 25/6/5 24/37/5
f 24/37/5 26/48/5 27/49/5
f 25/51/3 16/21/3 19/24/3
f 19/24/3 24/50/3 25/51/3
f 27/53/6 20/47/6 16/45/6
f 16/45/6 25/52/6 27/53/6
f 26/57/1 23/55/1 20/54/1
f 20/54/1 27/56/1 26/57/1

