# ProBuilder 4.2.3
# https://unity3d.com/unity/features/worldbuilding/probuilder
# 7/22/2021 4:19:28 PM

mtllib ./BarExterior.mtl
o BarExterior

g BarExterior
v -5 -2 23.97472
v -12 -2 23.97472
v -5 4 23.97472
v -12 4 23.97472
v -12 -2 10
v -12 4 10
v -6 -2 10
v -6 4 10
v -5 -2 11
v -5 4 11

vt 0 0
vt -7 0
vt 0 6
vt -7 6
vt 11.97472 0
vt -2 0
vt 11.97472 6
vt -2 6
vt 6.991625 0
vt 0.99 0
vt 6.991625 6
vt 0.99 6
vt 1.01 0
vt -8 0
vt 1.01 6
vt -8 6
vt 2.12132 0
vt 2.12132 6
vt 0.7071068 0
vt 0.7071068 6
vt -7 -2
vt -7 11.97472
vt 0 11.97472
vt 0 -1
vt -1 -2
vt 7 11.97472
vt 7 -2
vt 1 -2

vn 0 0 1
vn -1 0 0
vn 0 0 -1
vn 1 0 0
vn 0.7071068 0 -0.7071068
vn 0 -1 0
vn 0 1 0

usemtl GridLines
f 9/24/6 1/23/6 2/22/6
f 9/24/6 2/22/6 5/21/6
f 5/21/6 7/25/6 9/24/6
f 10/24/7 8/28/7 6/27/7
f 6/27/7 4/26/7 10/24/7
f 4/26/7 3/23/7 10/24/7
f 4/4/1 2/2/1 1/1/1
f 1/1/1 3/3/1 4/4/1
f 6/8/2 5/6/2 2/5/2
f 2/5/2 4/7/2 6/8/2
f 8/12/3 7/10/3 5/9/3
f 5/9/3 6/11/3 8/12/3
f 3/16/4 1/14/4 9/13/4
f 9/13/4 10/15/4 3/16/4
f 9/19/5 7/17/5 8/18/5
f 8/18/5 10/20/5 9/19/5

