# ProBuilder 4.2.3
# https://unity3d.com/unity/features/worldbuilding/probuilder
# 5/16/2021 8:43:50 PM

mtllib ./Cube.mtl
o Cube

g Cube
v -9 0 10
v -9 0 9
v -9 1 9
v -9 1 10
v 5 0 9
v 5 0 10
v 5 1 10
v 5 1 9
v -9 0 -9
v -9 1 -9
v -9 0 -10
v -9 1 -10
v 5 1 -9
v 5 0 -9
v 5 1 -10
v 5 0 -10
v 4 0 10
v 4 1 10
v -2 0 10
v -2 1 10
v 4 1 -10
v 4 0 -10
v -2 1 -10
v -2 0 -10
v -2 2 9
v 4 2 9
v 4 2 10
v -2 2 10
v 5 2 9
v 5 2 10
v -2 0 9
v 4 0 9
v -2 2 -10
v 4 2 -10
v 4 2 -9
v -2 2 -9
v 5 2 -10
v 5 2 -9
v -2 1 -9
v 4 1 -9
v 4 1 9
v -2 1 9
v -2 0 -9
v 4 0 -9
v -8 0 10
v -8 1 10
v -8 1 -10
v -8 0 -10
v -9 2 9
v -8 2 9
v -8 2 10
v -9 2 10
v -8 0 9
v -9 2 -10
v -8 2 -10
v -8 2 -9
v -9 2 -9
v -8 1 -9
v -8 1 9
v -8 0 -9

vt 10 0
vt 9 0
vt 9 1
vt 10 1
vt -9 0
vt -10 0
vt -10 1
vt -9 1
vt 5 0
vt 4 0
vt 4 1
vt 5 1
vt -2 0
vt -2 1
vt -5 0
vt -5 1
vt -4 1
vt -4 0
vt 2 1
vt 2 0
vt 2 9
vt -4 9
vt -4 10
vt 2 10
vt -5 9
vt -5 10
vt -2 9
vt -2 10
vt 4 10
vt 4 9
vt 5 10
vt 5 9
vt 2 -10
vt -4 -10
vt -4 -9
vt 2 -9
vt -5 -10
vt -5 -9
vt -2 -10
vt -2 -9
vt 4 -9
vt 4 -10
vt 5 -9
vt 5 -10
vt -8 0
vt -8 1
vt 8 1
vt 8 0
vt 9 9
vt 8 9
vt 8 10
vt 9 10
vt -9 9
vt -9 10
vt -8 10
vt -8 9
vt 9 -10
vt 8 -10
vt 8 -9
vt 9 -9
vt -9 -10
vt -9 -9
vt -8 -9
vt -8 -10
vt 8 2
vt 2 2
vt 4 2
vt -2 2
vt -9 2
vt -10 2
vt -8 2
vt -4 2
vt 9 2
vt -5 2
vt 10 2
vt 5 2

vn -1 0 0
vn 1 0 0
vn 0 0 1
vn 0 0 -1
vn 0 1 0
vn 0 -1 0

usemtl GridLines
f 4/4/1 3/3/1 2/2/1 1/1/1
f 5/5/2 8/8/2 7/7/2 6/6/2
f 3/3/1 10/8/1 9/5/1 2/2/1
f 10/8/1 12/7/1 11/6/1 9/5/1
f 14/2/2 13/3/2 8/8/2 5/5/2
f 16/1/2 15/4/2 13/3/2 14/2/2
f 7/12/3 18/11/3 17/10/3 6/9/3
f 18/11/3 20/14/3 19/13/3 17/10/3
f 22/18/4 21/17/4 15/16/4 16/15/4
f 24/20/4 23/19/4 21/17/4 22/18/4
f 28/24/5 27/23/5 26/22/5 25/21/5
f 27/23/5 30/26/5 29/25/5 26/22/5
f 32/30/6 17/29/6 19/28/6 31/27/6
f 5/32/6 6/31/6 17/29/6 32/30/6
f 36/36/5 35/35/5 34/34/5 33/33/5
f 35/35/5 38/38/5 37/37/5 34/34/5
f 42/21/5 41/22/5 40/35/5 39/36/5
f 26/22/5 29/25/5 38/38/5 35/35/5
f 22/42/6 44/41/6 43/40/6 24/39/6
f 16/44/6 14/43/6 44/41/6 22/42/6
f 44/41/6 32/30/6 31/27/6 43/40/6
f 14/43/6 5/32/6 32/30/6 44/41/6
f 20/14/3 46/46/3 45/45/3 19/13/3
f 46/46/3 4/8/3 1/5/3 45/45/3
f 48/48/4 47/47/4 23/19/4 24/20/4
f 11/2/4 12/3/4 47/47/4 48/48/4
f 52/52/5 51/51/5 50/50/5 49/49/5
f 51/51/5 28/24/5 25/21/5 50/50/5
f 53/56/6 45/55/6 1/54/6 2/53/6
f 31/27/6 19/28/6 45/55/6 53/56/6
f 57/60/5 56/59/5 55/58/5 54/57/5
f 56/59/5 36/36/5 33/33/5 55/58/5
f 49/49/5 50/50/5 56/59/5 57/60/5
f 59/50/5 42/21/5 39/36/5 58/59/5
f 48/64/6 60/63/6 9/62/6 11/61/6
f 24/39/6 43/40/6 60/63/6 48/64/6
f 60/63/6 53/56/6 2/53/6 9/62/6
f 43/40/6 31/27/6 53/56/6 60/63/6
f 55/65/4 33/66/4 23/19/4 47/47/4
f 35/67/3 36/68/3 39/14/3 40/11/3
f 57/69/1 54/70/1 12/7/1 10/8/1
f 36/68/3 56/71/3 58/46/3 39/14/3
f 33/66/4 34/72/4 21/17/4 23/19/4
f 38/73/2 29/69/2 8/8/2 13/3/2
f 34/72/4 37/74/4 15/16/4 21/17/4
f 37/75/2 38/73/2 13/3/2 15/4/2
f 26/73/1 35/69/1 40/8/1 41/3/1
f 29/69/2 30/70/2 7/7/2 8/8/2
f 52/75/1 49/73/1 3/3/1 4/4/1
f 30/76/3 27/67/3 18/11/3 7/12/3
f 25/66/4 26/72/4 41/17/4 42/19/4
f 27/67/3 28/68/3 20/14/3 18/11/3
f 50/65/4 25/66/4 42/19/4 59/47/4
f 28/68/3 51/71/3 46/46/3 20/14/3
f 54/73/4 55/65/4 47/47/4 12/3/4
f 51/71/3 52/69/3 4/8/3 46/46/3
f 56/73/2 50/69/2 59/8/2 58/3/2
f 49/73/1 57/69/1 10/8/1 3/3/1

