# ProBuilder 4.2.3
# https://unity3d.com/unity/features/worldbuilding/probuilder
# 7/18/2021 8:54:48 PM

mtllib ./Street2.mtl
o Street2

g Street
v 42.38177 -23.92725 3.024829
v -64.04645 -23.92725 3.024829
v 42.38177 -0.9427948 3.024829
v -64.04645 -0.9427948 3.024829
v -64.04645 -23.92725 -12.82855
v -64.04645 -0.9427948 -12.82855
v 42.38177 -23.92725 -12.82855
v 42.38177 -0.9427948 -12.82855

vt 37.15178 -2.717251
vt -69.27645 -2.717251
vt 37.15178 20.2672
vt -69.27645 20.2672
vt 13.73483 -2.717251
vt -2.118552 -2.717251
vt 13.73483 20.2672
vt -2.118552 20.2672
vt 69.27645 -2.717251
vt -37.15178 -2.717251
vt 69.27645 20.2672
vt -37.15178 20.2672
vt 2.118552 -2.717251
vt -13.73483 -2.717251
vt 2.118552 20.2672
vt -13.73483 20.2672
vt -37.15178 13.73483
vt 69.27645 13.73483
vt -37.15178 -2.118552
vt 69.27645 -2.118552
vt 37.15178 -2.118552
vt -69.27645 -2.118552
vt 37.15178 13.73483
vt -69.27645 13.73483

vn 0 0 1
vn -1 0 0
vn 0 0 -1
vn 1 0 0
vn 0 1 0
vn 0 -1 0

usemtl 02.2-BlueprintGrid-Mug-2
f 3/3/1 4/4/1 2/2/1 1/1/1
f 4/7/2 6/8/2 5/6/2 2/5/2
f 6/11/3 8/12/3 7/10/3 5/9/3
f 8/15/4 3/16/4 1/14/4 7/13/4
f 8/19/5 6/20/5 4/18/5 3/17/5
f 1/23/6 2/24/6 5/22/6 7/21/6

g Building1
v 31.75161 -21.47074 24.19334
v 16.38 -21.47074 24.19334
v 31.75161 35.39509 24.19334
v 16.38 35.39509 24.19334
v 16.38 -21.47074 3.057467
v 16.38 35.39509 3.057467
v 31.75161 -21.47074 3.057467
v 31.75161 35.39509 3.057467

vt 14.37161 -21.47074
vt -1 -21.47074
vt 14.37161 35.39509
vt -1 35.39509
vt 14.19334 -21.47074
vt -6.942533 -21.47074
vt 14.19334 35.39509
vt -6.942533 35.39509
vt 1 -21.47074
vt -14.37161 -21.47074
vt 1 35.39509
vt -14.37161 35.39509
vt 6.942533 -21.47074
vt -14.19334 -21.47074
vt 6.942533 35.39509
vt -14.19334 35.39509
vt -14.37161 14.19334
vt 1 14.19334
vt -14.37161 -6.942533
vt 1 -6.942533
vt 14.37161 -6.942533
vt -1 -6.942533
vt 14.37161 14.19334
vt -1 14.19334

vn 0 0 1
vn -1 0 0
vn 0 0 -1
vn 1 0 0
vn 0 1 0
vn 0 -1 0

usemtl 02.2-BlueprintGrid-Mug-2
f 11/27/7 12/28/7 10/26/7 9/25/7
f 12/31/8 14/32/8 13/30/8 10/29/8
f 14/35/9 16/36/9 15/34/9 13/33/9
f 16/39/10 11/40/10 9/38/10 15/37/10
f 16/43/11 14/44/11 12/42/11 11/41/11
f 9/47/12 10/48/12 13/46/12 15/45/12

g Stairs
v 16.56324 -2.482366 24.61177
v 12.40789 -2.482366 24.61177
v 16.56324 12.30057 24.87313
v 12.40789 12.30057 24.87313
v 12.40789 -2.482366 8.268831
v 12.40789 -0.9345164 8.268831
v 16.56324 -2.482366 8.268831
v 16.56324 -0.9345166 8.268831

vt 10.23324 -2.101892
vt 6.077889 -2.101892
vt 10.23324 12.68335
vt 6.077889 12.68335
vt 21.50177 -2.482366
vt 5.158832 -2.482366
vt 21.76313 12.30057
vt 5.158832 -0.9345164
vt -6.077889 -2.482366
vt -10.23324 -2.482366
vt -6.077889 -0.9345164
vt -10.23324 -0.9345166
vt -5.158832 -2.482366
vt -21.50177 -2.482366
vt -5.158832 -0.9345166
vt -21.76313 12.30057
vt -10.23324 24.68531
vt -6.077889 24.68531
vt -10.23324 3.451606
vt -6.077889 3.451606
vt 10.23324 5.158832
vt 6.077889 5.158832
vt 10.23324 21.50177
vt 6.077889 21.50177

vn 0 -0.01767697 0.9998438
vn -1 0 0
vn 0 0 -1
vn 1 0 0
vn 0 0.7819785 -0.6233054
vn 0 -1 0

usemtl 02.2-BlueprintGrid-Mug-2
f 19/51/13 20/52/13 18/50/13 17/49/13
f 20/55/14 22/56/14 21/54/14 18/53/14
f 22/59/15 24/60/15 23/58/15 21/57/15
f 24/63/16 19/64/16 17/62/16 23/61/16
f 24/67/17 22/68/17 20/66/17 19/65/17
f 17/71/18 18/72/18 21/70/18 23/69/18

g Street
v 42.38177 -14.32725 36.014
v -44.71376 -14.32725 36.014
v 42.38177 8.657205 36.014
v -44.71376 19.77182 36.014
v -44.71376 -14.32725 24.71498
v -44.71376 19.77182 24.71498
v 42.38177 -14.32725 24.71498
v 42.38177 8.657205 24.71498

vt 37.15178 -2.717251
vt -49.94376 -2.717251
vt 37.15178 20.2672
vt -49.94376 31.38182
vt 15.314 -2.717251
vt 4.014977 -2.717251
vt 15.314 31.38182
vt 4.014977 31.38182
vt 49.94376 -2.717251
vt -37.15178 -2.717251
vt 49.94376 31.38182
vt -37.15178 20.2672
vt -4.014977 -2.717251
vt -15.314 -2.717251
vt -4.014977 20.2672
vt -15.314 20.2672
vt -34.28733 15.314
vt 53.51453 15.314
vt -34.28733 4.014977
vt 53.51453 4.014977
vt 37.15178 4.014977
vt -49.94376 4.014977
vt 37.15178 15.314
vt -49.94376 15.314

vn 0 0 1
vn -1 0 0
vn 0 0 -1
vn 1 0 0
vn 0.1265875 0.9919555 0
vn 0 -1 0

usemtl 02.2-BlueprintGrid-Mug-2
f 27/75/19 28/76/19 26/74/19 25/73/19
f 28/79/20 30/80/20 29/78/20 26/77/20
f 30/83/21 32/84/21 31/82/21 29/81/21
f 32/87/22 27/88/22 25/86/22 31/85/22
f 32/91/23 30/92/23 28/90/23 27/89/23
f 25/95/24 26/96/24 29/94/24 31/93/24

g Sidewalk
v 21.32195 -6.507251 25.57385
v -64.04645 -6.507251 25.57385
v 21.32195 -0.9248655 25.57385
v -64.04645 -0.9248657 25.57385
v -64.04645 -6.507251 3.022034
v -64.04645 -0.9248657 3.022034
v 21.32195 -6.507251 3.022034
v 21.32195 -0.9248655 3.022034

vt 16.09196 -2.717251
vt -69.27645 -2.717251
vt 16.09196 2.865134
vt -69.27645 2.865134
vt 22.58385 -2.717251
vt 0.03203368 -2.717251
vt 22.58385 2.865134
vt 0.03203368 2.865134
vt 69.27645 -2.717251
vt -16.09196 -2.717251
vt 69.27645 2.865134
vt -16.09196 2.865134
vt -0.03203368 -2.717251
vt -22.58385 -2.717251
vt -0.03203368 2.865134
vt -22.58385 2.865134
vt -16.09196 22.58385
vt 69.27645 22.58385
vt -16.09196 0.03203368
vt 69.27645 0.03203368
vt 16.09196 0.03203368
vt -69.27645 0.03203368
vt 16.09196 22.58385
vt -69.27645 22.58385

vn 0 0 1
vn -1 0 0
vn 0 0 -1
vn 1 0 0
vn -2.79282E-09 1 0
vn 0 -1 0

usemtl 02.2-BlueprintGrid-Mug-2
f 35/99/25 36/100/25 34/98/25 33/97/25
f 36/103/26 38/104/26 37/102/26 34/101/26
f 38/107/27 40/108/27 39/106/27 37/105/27
f 40/111/28 35/112/28 33/110/28 39/109/28
f 40/115/29 38/116/29 36/114/29 35/113/29
f 33/119/30 34/120/30 37/118/30 39/117/30

g Bar
v -6.108393 -3.444713 24.19334
v -31.65969 -3.444713 24.19334
v -6.108393 21.06495 24.19334
v -31.65969 21.06495 24.19334
v -31.65969 -3.444713 9.836955
v -31.65969 21.06495 9.836955
v -28.97361 -3.444713 5.950592
v -8.729382 -3.444713 5.950592
v -28.97361 21.06495 5.950592
v -8.729382 21.06495 5.950592
v -6.108393 -3.444713 9.836955
v -6.108393 21.06495 9.836955

vt 14.37161 -3.444713
vt -11.17969 -3.444713
vt 14.37161 21.06495
vt -11.17969 21.06495
vt 14.19334 -3.444713
vt -3.059408 -3.444713
vt 14.19334 21.06495
vt -3.059408 21.06495
vt 10.18969 -3.444713
vt -13.38161 -3.444713
vt 10.18969 21.06495
vt -13.38161 21.06495
vt 3.059408 -3.444713
vt -14.19334 -3.444713
vt 3.059408 21.06495
vt -14.19334 21.06495
vt -3.212909 -3.444713
vt -3.212909 21.06495
vt -7.900488 -3.444713
vt -7.900488 21.06495
vt 6.222298 -3.444713
vt 6.222298 21.06495
vt 1.498014 -3.444713
vt 1.498014 21.06495
vt -8.493607 -4.049408
vt -11.17969 -0.1630449
vt -11.17969 14.19334
vt 14.37161 14.19334
vt 14.37161 -0.1630449
vt 11.75062 -4.049408
vt 11.17969 14.19334
vt 11.17969 -0.1630449
vt 8.493607 -4.049408
vt -11.75062 -4.049408
vt -14.37161 -0.1630449
vt -14.37161 14.19334

vn 0 0 1
vn -1 0 0
vn 0 0 -1
vn 1 0 0
vn 0.8290768 0 -0.5591348
vn -0.8226356 0 -0.5685691
vn 0 -1 0
vn 0 1 0

usemtl 02.2-BlueprintGrid-Mug-2
f 42/147/37 48/150/37 41/148/37
f 42/147/37 47/145/37 48/150/37
f 42/147/37 45/146/37 47/145/37
f 48/150/37 51/149/37 41/148/37
f 43/156/38 52/155/38 50/154/38
f 49/153/38 46/152/38 44/151/38
f 50/154/38 49/153/38 44/151/38
f 43/156/38 50/154/38 44/151/38
f 44/124/31 42/122/31 41/121/31
f 41/121/31 43/123/31 44/124/31
f 46/128/32 45/126/32 42/125/32
f 42/125/32 44/127/32 46/128/32
f 50/132/33 48/130/33 47/129/33
f 47/129/33 49/131/33 50/132/33
f 43/136/34 41/134/34 51/133/34
f 51/133/34 52/135/34 43/136/34
f 51/139/35 48/137/35 50/138/35
f 50/138/35 52/140/35 51/139/35
f 47/143/36 45/141/36 46/142/36
f 46/142/36 49/144/36 47/143/36

g BarDoor
v -6.664391 -0.9231579 8.454577
v -8.029099 -0.9231579 6.591545
v -6.664391 4.555798 8.454577
v -8.029097 4.555798 6.591545
v -7.631004 -0.9231579 6.299935
v -7.631004 4.555798 6.299935
v -6.266299 -0.9231579 8.162969
v -6.266299 4.555798 8.162969

vt -4.097529E-07 -2.863158
vt -2.309398 -2.863158
vt -4.097529E-07 2.615798
vt -2.309397 2.615798
vt -0.4934639 -2.863158
vt -0.4934639 2.615798
vt 2.309397 -2.863158
vt 2.309397 2.615798
vt 0.4934696 -2.863158
vt 0.4934696 2.615798
vt 4.097524E-07 5.131101E-07
vt 2.309397 9.385522E-07
vt 1.967186E-08 -0.4934696
vt 2.309397 -0.4934695
vt -2.309397 -0.4934695
vt -2.309398 2.477246E-06

vn -0.8067182 0 0.5909364
vn -0.5909337 2.17576E-07 -0.8067201
vn 0.8067186 0 -0.5909358
vn 0.5909351 0 0.8067191
vn 0 1 0
vn 0 -1 0

usemtl 02.2-BlueprintGrid-Mug-2
f 55/159/39 56/160/39 54/158/39 53/157/39
f 56/159/40 58/162/40 57/161/40 54/157/40
f 58/164/41 60/159/41 59/157/41 57/163/41
f 60/166/42 55/159/42 53/157/42 59/165/42
f 60/169/43 58/170/43 56/168/43 55/167/43
f 53/167/44 54/172/44 57/171/44 59/169/44

g Building2
v -32.57938 -3.444713 24.19334
v -59.94969 -3.444713 24.19334
v -32.57938 34.03615 24.19334
v -59.94969 34.03615 24.19334
v -59.94969 -3.444713 9.836955
v -59.94969 34.03615 9.836955
v -57.26361 -3.444713 5.950592
v -37.01938 -3.444713 5.950592
v -57.26361 34.03615 5.950591
v -37.01938 34.03615 5.950591
v -32.57938 -3.444713 9.836955
v -32.57938 34.03615 9.836955

vt 16.19062 -3.444713
vt -11.17969 -3.444713
vt 16.19062 34.03615
vt -11.17969 34.03615
vt 14.19334 -3.444713
vt -3.059408 -3.444713
vt 14.19334 21.06495
vt -3.059408 21.06495
vt 10.18969 -3.444713
vt -13.38161 -3.444713
vt 10.18969 21.06495
vt -13.38161 21.06495
vt 3.059408 -3.444713
vt -14.19334 -3.444713
vt 3.059408 21.06495
vt -14.19334 21.06495
vt -6.174819 -3.444713
vt -6.174819 34.03615
vt -12.07545 -3.444713
vt -12.07545 34.03615
vt 6.222297 -3.444713
vt 6.222297 34.03615
vt 1.498014 -3.444713
vt 1.498013 34.03615
vt -8.493607 -4.049408
vt -11.17969 -0.1630449
vt -11.17969 14.19334
vt 16.19062 14.19334
vt 16.19062 -0.1630449
vt 11.75062 -4.049408
vt 11.17969 14.19334
vt 11.17969 -0.1630449
vt 8.493607 -4.049409
vt -11.75062 -4.049409
vt -16.19062 -0.1630449
vt -16.19062 14.19334

vn 0 0 1
vn -1 0 0
vn 0 -1.272215E-08 -1
vn 1 0 0
vn 0.658635 -9.572942E-09 -0.7524627
vn -0.8226356 0 -0.568569
vn 0 -1 0
vn 0 1 0

usemtl 02.2-BlueprintGrid-Mug-2
f 62/199/51 68/202/51 61/200/51
f 62/199/51 67/197/51 68/202/51
f 62/199/51 65/198/51 67/197/51
f 68/202/51 71/201/51 61/200/51
f 63/208/52 72/207/52 70/206/52
f 69/205/52 66/204/52 64/203/52
f 70/206/52 69/205/52 64/203/52
f 63/208/52 70/206/52 64/203/52
f 64/176/45 62/174/45 61/173/45
f 61/173/45 63/175/45 64/176/45
f 66/180/46 65/178/46 62/177/46
f 62/177/46 64/179/46 66/180/46
f 70/184/47 68/182/47 67/181/47
f 67/181/47 69/183/47 70/184/47
f 63/188/48 61/186/48 71/185/48
f 71/185/48 72/187/48 63/188/48
f 71/191/49 68/189/49 70/190/49
f 70/190/49 72/192/49 71/191/49
f 67/195/50 65/193/50 66/194/50
f 66/194/50 69/196/50 67/195/50

g Building3
v 36.97161 -0.2707405 56.49334
v 21.6 -0.2707405 56.49334
v 36.97161 56.59509 56.49334
v 21.6 56.59509 56.49334
v 21.6 -0.2707405 35.35747
v 21.6 56.59509 35.35747
v 36.97161 -0.2707405 35.35747
v 36.97161 56.59509 35.35747

vt 14.37161 -21.47074
vt -1 -21.47074
vt 14.37161 35.39509
vt -1 35.39509
vt 14.19334 -21.47074
vt -6.942533 -21.47074
vt 14.19334 35.39509
vt -6.942533 35.39509
vt 1 -21.47074
vt -14.37161 -21.47074
vt 1 35.39509
vt -14.37161 35.39509
vt 6.942533 -21.47074
vt -14.19334 -21.47074
vt 6.942533 35.39509
vt -14.19334 35.39509
vt -14.37161 14.19334
vt 1 14.19334
vt -14.37161 -6.942533
vt 1 -6.942533
vt 14.37161 -6.942533
vt -1 -6.942533
vt 14.37161 14.19334
vt -1 14.19334

vn 0 0 1
vn -1 0 0
vn 0 0 -1
vn 1 0 0
vn 0 1 0
vn 0 -1 0

usemtl 02.2-BlueprintGrid-Mug-2
f 75/211/53 76/212/53 74/210/53 73/209/53
f 76/215/54 78/216/54 77/214/54 74/213/54
f 78/219/55 80/220/55 79/218/55 77/217/55
f 80/223/56 75/224/56 73/222/56 79/221/56
f 80/227/57 78/228/57 76/226/57 75/225/57
f 73/231/58 74/232/58 77/230/58 79/229/58

g Building 4
v 20.38161 -0.2707405 56.49334
v -6.633482 -0.2707405 56.49334
v 20.38161 40.42561 56.49334
v -6.633482 40.42561 56.49334
v -6.633482 -0.2707405 35.35747
v -6.633482 40.42561 35.35747
v 20.38161 -0.2707405 35.35747
v 20.38161 40.42561 35.35747

vt 14.37161 -21.47074
vt -12.64348 -21.47074
vt 14.37161 19.22561
vt -12.64348 19.22561
vt 14.19334 -21.47074
vt -6.942532 -21.47074
vt 14.19334 19.22561
vt -6.942532 19.22561
vt 12.64348 -21.47074
vt -14.37161 -21.47074
vt 12.64348 19.22561
vt -14.37161 19.22561
vt 6.942533 -21.47074
vt -14.19334 -21.47074
vt 6.942532 19.22561
vt -14.19334 19.22561
vt -14.37161 14.19334
vt 12.64348 14.19334
vt -14.37161 -6.942532
vt 12.64348 -6.942532
vt 14.37161 -6.942533
vt -12.64348 -6.942532
vt 14.37161 14.19334
vt -12.64348 14.19334

vn 0 0 1
vn -1 0 0
vn -3.530154E-08 0 -1
vn 1 0 0
vn 0 1 0
vn 0 -1 0

usemtl 02.2-BlueprintGrid-Mug-2
f 83/235/59 84/236/59 82/234/59 81/233/59
f 84/239/60 86/240/60 85/238/60 82/237/60
f 86/243/61 88/244/61 87/242/61 85/241/61
f 88/247/62 83/248/62 81/246/62 87/245/62
f 88/251/63 86/252/63 84/250/63 83/249/63
f 81/255/64 82/256/64 85/254/64 87/253/64

g Building 5
v -6.898394 -0.2707405 56.49334
v -38.45752 -0.2707405 56.49334
v -6.89842 47.51827 56.49337
v -38.45755 47.51827 56.49331
v -38.45752 -0.2707405 35.35747
v -38.45749 47.51827 35.35743
v -6.898394 -0.2707405 35.35747
v -6.898367 47.51827 35.3575

vt 14.37161 -21.47073
vt -17.18752 -21.47073
vt 14.37158 26.31828
vt -17.18755 26.31828
vt 14.19334 -21.47073
vt -6.942532 -21.47073
vt 14.19331 26.31828
vt -6.942566 26.31828
vt 17.18752 -21.47074
vt -14.37161 -21.47074
vt 17.18749 26.31828
vt -14.37163 26.31828
vt 6.942533 -21.47073
vt -14.19334 -21.47073
vt 6.942497 26.31828
vt -14.19337 26.31828
vt -14.37158 14.19337
vt 17.18755 14.19331
vt -14.37163 -6.942497
vt 17.18749 -6.942566
vt 14.37161 -6.942533
vt -17.18752 -6.942532
vt 14.37161 14.19334
vt -17.18752 14.19334

vn 0 -7.184136E-07 1
vn -1 -5.587661E-07 0
vn -3.021865E-08 -7.184136E-07 -1
vn 1 -5.587661E-07 0
vn 0 1 0
vn 0 -1 0

usemtl 02.2-BlueprintGrid-Mug-2
f 91/259/65 92/260/65 90/258/65 89/257/65
f 92/263/66 94/264/66 93/262/66 90/261/66
f 94/267/67 96/268/67 95/266/67 93/265/67
f 96/271/68 91/272/68 89/270/68 95/269/68
f 96/275/69 94/276/69 92/274/69 91/273/69
f 89/279/70 90/280/70 93/278/70 95/277/70

g Building 6
v -39.0284 -2.970741 56.49334
v -54.4 -2.970741 56.49334
v -39.0284 53.89509 56.49334
v -54.4 53.89509 56.49334
v -54.4 -2.970741 35.35747
v -54.4 53.89509 35.35747
v -39.0284 -2.970741 35.35747
v -39.0284 53.89509 35.35747

vt 14.37161 -21.47074
vt -1 -21.47074
vt 14.37161 35.39509
vt -1 35.39509
vt 14.19334 -21.47074
vt -6.942533 -21.47074
vt 14.19334 35.39509
vt -6.942533 35.39509
vt 1 -21.47074
vt -14.37161 -21.47074
vt 1 35.39509
vt -14.37161 35.39509
vt 6.942533 -21.47074
vt -14.19334 -21.47074
vt 6.942533 35.39509
vt -14.19334 35.39509
vt -14.37161 14.19334
vt 1 14.19334
vt -14.37161 -6.942533
vt 1 -6.942533
vt 14.37161 -6.942533
vt -1 -6.942533
vt 14.37161 14.19334
vt -1 14.19334

vn 0 0 1
vn -1 0 0
vn 0 0 -1
vn 1 0 0
vn 0 1 0
vn 0 -1 0

usemtl 02.2-BlueprintGrid-Mug-2
f 99/283/71 100/284/71 98/282/71 97/281/71
f 100/287/72 102/288/72 101/286/72 98/285/72
f 102/291/73 104/292/73 103/290/73 101/289/73
f 104/295/74 99/296/74 97/294/74 103/293/74
f 104/299/75 102/300/75 100/298/75 99/297/75
f 97/303/76 98/304/76 101/302/76 103/301/76

