# Blender v2.93.0 OBJ File: 'GRAVES LEVEL WITH OBJECTSand textures.blend'
# www.blender.org
mtllib firehydrant.mtl
o Plane.004_Plane.005
v -15.197083 -0.000099 4.836084
v -15.579949 -0.000099 5.207886
v -14.825280 -0.000099 5.218950
v -15.208147 -0.000099 5.590752
v -14.931888 -0.000099 4.950514
v -15.465519 -0.000099 4.942690
v -15.473342 -0.000099 5.476322
v -14.939711 -0.000099 5.484146
v -15.202615 -0.000099 5.213418
v -14.931888 0.306111 4.950514
v -15.197083 0.306111 4.836084
v -15.465519 0.306111 4.942690
v -15.579949 0.306111 5.207886
v -15.473342 0.306111 5.476322
v -15.208147 0.306111 5.590752
v -14.939711 0.306111 5.484146
v -14.825280 0.306111 5.218950
v -14.978689 0.886882 4.995964
v -14.978689 0.306111 4.995964
v -15.198039 0.306111 4.901316
v -15.420069 0.306111 4.989492
v -15.498629 0.349698 5.249352
v -15.442628 0.349698 5.390362
v -15.207191 0.306111 5.525520
v -14.985161 0.306111 5.437344
v -14.890512 0.306111 5.217994
v -14.934266 0.914253 4.979557
v -15.198039 0.886882 4.901316
v -15.420069 0.886882 4.989492
v -15.498629 0.843295 5.249352
v -15.442628 0.843295 5.390362
v -15.207191 0.886882 5.525520
v -14.985161 0.886882 5.437344
v -14.890512 0.886882 5.217994
v -14.978518 1.135081 5.007723
v -15.197186 0.886882 4.843166
v -15.460584 0.886882 4.947772
v -15.556739 0.904666 5.237358
v -15.470963 0.914253 5.447279
v -15.118825 0.916538 5.540793
v -15.038972 0.916538 5.509080
v -14.848491 0.904666 5.189478
v -15.075644 1.152865 5.090117
v -15.198171 1.152865 4.910332
v -15.413787 1.152865 4.995961
v -15.512486 1.125493 5.209191
v -15.426711 1.135081 5.419113
v -15.129256 1.123208 5.493052
v -15.064137 1.123208 5.467190
v -14.892743 1.125493 5.217645
v -15.169291 1.355893 5.181056
v -15.200020 1.152865 5.036449
v -15.325916 1.152865 5.086447
v -15.379584 1.152865 5.210824
v -15.329586 1.152865 5.336720
v -15.205210 1.152865 5.390387
v -15.079313 1.152865 5.340389
v -15.025645 1.152865 5.216012
v -15.353311 1.210131 5.241500
v -15.201934 1.355893 5.166971
v -15.234976 1.355893 5.180093
v -15.249062 1.355893 5.212737
v -15.235939 1.355893 5.245780
v -15.203296 1.355893 5.259865
v -15.170254 1.355893 5.246743
v -15.156168 1.355893 5.214099
v -15.331517 1.210131 5.296375
v -15.331409 1.298626 5.241822
v -15.315804 1.298626 5.281116
v -15.410929 1.224308 5.264383
v -15.389136 1.224308 5.319258
v -15.389028 1.312803 5.264704
v -15.373423 1.312803 5.303998
v -15.523016 0.863725 5.348153
v -15.552378 1.013094 5.179799
v -15.431073 1.026653 5.476672
v -15.460434 1.176022 5.308318
v -14.882214 0.863725 5.078683
v -15.577751 0.878956 5.357162
v -15.532285 0.922389 5.462685
v -15.629160 1.044125 5.210218
v -15.617878 0.929380 5.252587
v -15.508113 1.034238 5.507342
v -15.519395 1.148983 5.464973
v -15.559523 1.199408 5.360399
v -15.604988 1.155975 5.254876
v -15.568637 1.039182 5.358780
v -14.852852 1.013094 5.247037
v -14.974156 1.026653 4.950164
v -14.944796 1.176022 5.118518
v -15.141462 0.476500 5.499417
v -14.826683 0.880281 5.072130
v -14.870868 0.921960 4.965362
v -14.770259 1.048055 5.214203
v -14.785010 0.932512 5.175203
v -14.891680 1.033133 4.917442
v -14.876929 1.148676 4.956442
v -14.835256 1.200906 5.059515
v -14.791072 1.159227 5.166284
v -14.830970 1.040594 5.065823
v -14.984653 0.547769 5.437141
v -15.207699 0.645224 5.525722
v -15.050889 0.716492 5.463447
v -15.049339 0.477191 5.462831
v -15.207057 0.546102 5.525467
v -14.985294 0.646891 5.437397
v -15.143012 0.715802 5.500032
v -15.096175 0.596496 5.481432
v -15.012374 0.482097 5.561524
v -14.950347 0.549773 5.536891
v -15.163607 0.548174 5.621585
v -15.100709 0.481435 5.596606
v -14.950963 0.644819 5.537135
v -15.013860 0.711558 5.562114
v -15.102195 0.710896 5.597196
v -15.164222 0.643220 5.621829
v -15.033880 0.536879 5.570065
v -15.001555 0.572147 5.557228
v -15.112693 0.571314 5.601365
v -15.079914 0.536534 5.588347
v -15.001877 0.621679 5.557355
v -15.034655 0.656459 5.570373
v -15.080688 0.656114 5.588655
v -15.113013 0.620846 5.601492
v -15.030062 0.566605 5.613700
v -15.045549 0.566605 5.574700
v -15.029343 0.584288 5.568263
v -15.085066 0.583870 5.590393
v -15.068631 0.566432 5.583866
v -15.029504 0.609123 5.568327
v -15.045938 0.626561 5.574854
v -15.069019 0.626388 5.584020
v -15.085226 0.608705 5.590457
v -15.036860 0.583925 5.616400
v -15.013854 0.584288 5.607263
v -15.069577 0.583870 5.629393
v -15.053143 0.566432 5.622866
v -15.014015 0.609123 5.607327
v -15.030450 0.626561 5.613854
v -15.053531 0.626388 5.623020
v -15.069737 0.608705 5.629457
v -15.030045 0.591362 5.613693
v -15.053479 0.591186 5.623000
v -15.046568 0.583852 5.620255
v -15.030112 0.601806 5.613720
v -15.037024 0.609140 5.616465
v -15.046731 0.609067 5.620320
v -15.053547 0.601631 5.623027
v -15.033049 0.583925 5.625999
v -15.026233 0.591362 5.623292
v -15.049667 0.591186 5.632599
v -15.042756 0.583852 5.629854
v -15.026300 0.601806 5.623319
v -15.033212 0.609140 5.626064
v -15.042919 0.609067 5.629919
v -15.049735 0.601631 5.632626
v -15.037984 0.596496 5.627959
v -15.111694 1.355893 5.125125
v -15.200757 1.355893 5.086696
v -15.290907 1.355893 5.122498
v -15.329337 1.355893 5.211560
v -15.293535 1.355893 5.301711
v -15.204473 1.355893 5.340140
v -15.114323 1.355893 5.304338
v -15.075892 1.355893 5.215276
v -15.202615 1.391516 5.213418
v -15.170254 1.391516 5.246743
v -15.234976 1.391516 5.180093
v -15.169291 1.391516 5.181056
v -15.235939 1.391516 5.245780
v -15.201934 1.391516 5.166971
v -15.249062 1.391516 5.212737
v -15.203296 1.391516 5.259865
v -15.156168 1.391516 5.214099
v -15.208043 0.886882 5.583670
v -14.944646 0.886882 5.479064
v -15.207059 1.152865 5.516504
v -14.991443 1.152865 5.430875
v -15.100279 0.933094 5.554904
v -15.114652 0.919177 5.551302
v -15.034798 0.919177 5.519589
v -15.042784 0.933094 5.532070
v -15.125082 1.125847 5.503561
v -15.109571 1.117195 5.512376
v -15.065201 1.117195 5.494754
v -15.059963 1.125847 5.477699
v -15.514717 0.306111 5.208842
v -15.426540 0.306111 5.430872
v -15.514717 0.886882 5.208842
v -15.426540 0.886882 5.430872
v -15.532367 0.557157 5.326032
v -15.526930 0.349698 5.260591
v -15.545048 0.364302 5.283500
v -15.539058 0.353611 5.269618
v -15.470928 0.349698 5.401602
v -15.519781 0.557157 5.357722
v -15.485946 0.353611 5.403355
v -15.499827 0.364302 5.397365
v -15.526930 0.843295 5.260591
v -15.532367 0.635836 5.326032
v -15.539058 0.839381 5.269618
v -15.545048 0.828691 5.283500
v -15.519781 0.635836 5.357722
v -15.470928 0.843295 5.401602
v -15.499827 0.828691 5.397365
v -15.485946 0.839381 5.403355
v -15.508854 0.378906 5.385237
v -15.543294 0.378906 5.298517
v -15.543294 0.814087 5.298517
v -15.508854 0.814087 5.385237
v -15.532367 0.557157 5.326032
v -15.519781 0.557157 5.357722
v -15.532367 0.635836 5.326032
v -15.519781 0.635836 5.357722
v -15.542233 0.557157 5.366638
v -15.554818 0.557157 5.334948
v -15.554818 0.635836 5.334948
v -15.542233 0.635836 5.366638
v -15.532367 0.661641 5.326032
v -15.519781 0.661641 5.357722
v -15.532367 0.740321 5.326032
v -15.519781 0.740321 5.357722
v -15.542233 0.661641 5.366638
v -15.554818 0.661641 5.334948
v -15.554818 0.740321 5.334948
v -15.542233 0.740321 5.366638
v -15.532367 0.496106 5.326032
v -15.519781 0.496106 5.357722
v -15.532367 0.517809 5.326032
v -15.519781 0.517809 5.357722
v -15.542233 0.496106 5.366638
v -15.554818 0.496106 5.334948
v -15.554818 0.517809 5.334948
v -15.542233 0.517809 5.366638
vt 0.500000 0.500000
vt 0.500000 1.000000
vt 1.000000 1.000000
vt 1.000000 0.500000
vt 0.000000 0.500000
vt 0.000000 1.000000
vt 0.000000 0.000000
vt 0.500000 0.000000
vt 1.000000 0.000000
vt 0.500000 0.000000
vt 1.000000 0.000000
vt 1.000000 0.000000
vt 0.500000 0.000000
vt 0.500000 1.000000
vt 0.000000 1.000000
vt 0.000000 1.000000
vt 0.500000 1.000000
vt 0.000000 0.000000
vt 0.000000 0.000000
vt 1.000000 1.000000
vt 1.000000 1.000000
vt 1.000000 0.500000
vt 0.000000 0.500000
vt 1.000000 0.000000
vt 0.500000 0.000000
vt 0.000000 1.000000
vt 0.500000 1.000000
vt 0.000000 0.000000
vt 1.000000 1.000000
vt 1.000000 0.500000
vt 0.000000 0.500000
vt 0.500000 1.000000
vt 1.000000 1.000000
vt 0.000000 0.500000
vt 0.000000 0.000000
vt 0.000000 0.500000
vt 1.000000 0.500000
vt 1.000000 0.500000
vt 0.000000 0.750000
vt 0.000000 1.000000
vt 1.000000 0.408774
vt 1.000000 0.091226
vt 1.000000 0.091226
vt 1.000000 0.408774
vt 0.000000 0.000000
vt 0.000000 0.500000
vt 0.000000 0.500000
vt 1.000000 1.000000
vt 1.000000 0.500000
vt 1.000000 0.500000
vt 0.000000 0.500000
vt 0.000000 0.500000
vt 1.000000 0.500000
vt 1.000000 0.500000
vt 0.500000 0.000000
vt 1.000000 0.000000
vt 1.000000 0.250000
vt 1.000000 0.000000
vt 1.000000 0.250000
vt 1.000000 0.500000
vt 1.000000 0.000000
vt 0.500000 0.000000
vt 0.500000 0.000000
vt 0.500000 1.000000
vt 0.000000 1.000000
vt 0.000000 1.000000
vt 0.500000 1.000000
vt 0.000000 0.000000
vt 0.562947 1.000000
vt 0.937053 1.000000
vt 0.937053 1.000000
vt 0.562947 1.000000
vt 0.000000 1.000000
vt 1.000000 0.000000
vt 0.000000 1.000000
vt 0.500000 1.000000
vt 0.500000 0.000000
vt 0.000000 0.000000
vt 1.000000 1.000000
vt 1.000000 1.000000
vt 0.000000 0.500000
vt 0.000000 0.500000
vt 0.000000 0.750000
vt 0.316737 0.500000
vt 0.352619 0.352619
vt 0.352619 0.352619
vt 0.316737 0.500000
vt 0.683263 0.500000
vt 0.647381 0.647381
vt 0.647381 0.647381
vt 0.683263 0.500000
vt 0.352619 0.647381
vt 0.352619 0.647381
vt 0.647381 0.352619
vt 0.647381 0.352619
vt 1.000000 0.000000
vt 1.000000 0.500000
vt 1.000000 0.000000
vt 1.000000 0.500000
vt 1.000000 0.000000
vt 1.000000 0.500000
vt 1.000000 0.500000
vt 1.000000 0.000000
vt 1.000000 0.000000
vt 1.000000 0.500000
vt 1.000000 0.250000
vt 1.000000 0.500000
vt 1.000000 0.000000
vt 1.000000 0.000000
vt 1.000000 0.250000
vt 1.000000 0.000000
vt 1.000000 0.250000
vt 0.000000 0.750000
vt 0.000000 0.500000
vt 0.000000 0.750000
vt 0.000000 0.750000
vt 0.000000 1.000000
vt 0.000000 1.000000
vt 0.000000 1.000000
vt 0.750000 1.000000
vt 0.750000 1.000000
vt 0.500000 1.000000
vt 0.500000 1.000000
vt 1.000000 1.000000
vt 1.000000 1.000000
vt 1.000000 1.000000
vt 0.750000 1.000000
vt 0.500000 1.000000
vt 1.000000 1.000000
vt 1.000000 1.000000
vt 1.000000 1.000000
vt 1.000000 1.000000
vt 0.500000 1.000000
vt 0.750000 1.000000
vt 0.750000 1.000000
vt 0.500000 1.000000
vt 1.000000 1.000000
vt 1.000000 1.000000
vt 0.500000 1.000000
vt 0.500000 1.000000
vt 0.750000 1.000000
vt 1.000000 1.000000
vt 1.000000 1.000000
vt 0.750000 1.000000
vt 0.500000 1.000000
vt 1.000000 1.000000
vt 0.500000 1.000000
vt 0.500000 1.000000
vt 0.750000 1.000000
vt 1.000000 1.000000
vt 0.750000 1.000000
vt 0.750000 1.000000
vt 0.500000 1.000000
vt 0.500000 1.000000
vt 0.750000 1.000000
vt 0.500000 1.000000
vt 0.500000 1.000000
vt 0.500000 1.000000
vt 1.000000 1.000000
vt 0.500000 1.000000
vt 0.750000 1.000000
vt 0.500000 1.000000
vt 0.500000 1.000000
vt 1.000000 1.000000
vt 1.000000 1.000000
vt 0.500000 1.000000
vt 0.500000 1.000000
vt 1.000000 1.000000
vt 1.000000 1.000000
vt 1.000000 1.000000
vt 0.750000 1.000000
vt 0.750000 1.000000
vt 0.500000 1.000000
vt 1.000000 1.000000
vt 1.000000 1.000000
vt 0.750000 1.000000
vt 0.750000 1.000000
vt 0.500000 0.316737
vt 0.500000 0.683263
vt 0.500000 0.500000
vt 0.500000 0.683263
vt 0.500000 0.316737
vt 0.556067 1.000000
vt 0.943933 1.000000
vt 0.943933 1.000000
vt 0.556067 1.000000
vt 0.890318 1.000000
vt 0.609682 1.000000
vt 0.623310 1.000000
vt 0.876690 1.000000
vt 1.000000 0.408774
vt 1.000000 0.091226
vt 1.000000 0.091226
vt 1.000000 0.408774
vt 1.000000 0.188494
vt 1.000000 0.311506
vt 1.000000 0.311506
vt 1.000000 0.188494
vt 1.000000 0.404679
vt 1.000000 0.095321
vt 1.000000 0.378209
vt 1.000000 0.121791
vt 1.000000 0.347645
vt 1.000000 0.152355
vt 1.000000 0.152355
vt 1.000000 0.347645
vt 1.000000 0.378209
vt 1.000000 0.121791
vt 1.000000 0.404679
vt 1.000000 0.095321
vt 1.000000 0.188494
vt 1.000000 0.188494
vt 1.000000 0.311506
vt 1.000000 0.311506
vt 1.000000 0.188494
vt 1.000000 0.311506
vt 1.000000 0.311506
vt 1.000000 0.188494
vt 1.000000 0.188494
vt 1.000000 0.188494
vt 1.000000 0.311506
vt 1.000000 0.311506
vt 1.000000 0.188494
vt 1.000000 0.311506
vt 1.000000 0.311506
vt 1.000000 0.188494
vt 1.000000 0.188494
vt 1.000000 0.188494
vt 1.000000 0.311506
vt 1.000000 0.311506
vt 1.000000 0.188494
vt 1.000000 0.311506
vt 1.000000 0.311506
vt 1.000000 0.188494
vn 0.0000 -1.0000 0.0000
vn 0.0000 1.0000 0.0000
vn -0.9294 0.0000 0.3691
vn 0.9294 0.0000 -0.3691
vn -0.3962 0.0000 0.9182
vn 0.3962 0.0000 -0.9182
vn 0.3691 0.0000 0.9294
vn -0.3691 0.0000 -0.9294
vn 0.9182 0.0000 0.3962
vn -0.9182 0.0000 -0.3962
vn 0.1719 -0.9539 -0.2458
vn -0.1719 -0.9539 0.2458
vn -0.0048 -0.9998 -0.0203
vn 0.3720 0.2057 -0.9052
vn -0.3720 0.2057 0.9052
vn -0.2503 -0.3764 -0.8920
vn 0.2558 -0.3682 0.8938
vn 0.2040 -0.9781 0.0423
vn -0.2040 -0.9781 -0.0423
vn 0.0048 -0.9998 0.0203
vn 0.0404 0.9982 -0.0448
vn -0.1316 0.9911 0.0210
vn 0.1316 0.9911 -0.0210
vn -0.0839 0.9738 -0.2112
vn -0.3594 0.2272 -0.9051
vn 0.8972 0.1783 0.4042
vn -0.8972 0.1783 -0.4042
vn 0.8951 0.2229 0.3862
vn -0.3598 0.2229 -0.9060
vn 0.3598 0.2229 0.9060
vn 0.3862 0.2229 -0.8951
vn -0.0404 0.9982 0.0448
vn -0.0735 0.9960 0.0501
vn 0.0735 0.9960 -0.0501
vn -0.8951 0.2229 -0.3862
vn -0.9060 0.2229 0.3598
vn 0.9060 0.2229 -0.3598
vn -0.3862 0.2229 0.8951
vn 0.2072 0.9748 -0.0823
vn -0.3485 0.0896 -0.9330
vn -0.2072 -0.9748 0.0823
vn 0.3866 0.0896 0.9179
vn 0.3174 0.9072 0.2760
vn 0.4197 0.3817 0.8235
vn -0.2658 0.3699 -0.8902
vn -0.9244 0.0488 0.3782
vn -0.9244 0.0487 0.3782
vn -0.3625 -0.8962 -0.2559
vn -0.4256 -0.3808 -0.8209
vn 0.0340 0.9020 -0.4304
vn -0.0847 -0.8896 0.4488
vn -0.3136 0.9060 -0.2842
vn -0.4184 0.3759 -0.8269
vn 0.1035 -0.8888 -0.4464
vn 0.9253 0.0098 -0.3791
vn 0.3769 -0.8905 0.2551
vn -0.0317 0.9066 0.4208
vn 0.4266 -0.3747 0.8232
vn 0.2642 0.3785 0.8871
vn 0.9456 0.0070 -0.3253
vn 0.0237 -0.9989 0.0408
vn 0.6691 0.7112 -0.2155
vn 0.6782 -0.7014 -0.2192
vn -0.6438 0.7014 0.3059
vn -0.9111 -0.0070 0.4120
vn 0.0107 0.9989 0.0459
vn -0.6347 -0.7112 0.3022
vn -0.6617 0.7022 0.2628
vn 0.6617 -0.7022 -0.2628
vn 0.6526 0.7120 -0.2592
vn 0.0065 -1.0000 -0.0026
vn 0.3691 0.0001 0.9294
vn -0.9294 -0.0069 0.3691
vn -0.0065 1.0000 0.0026
vn -0.6526 -0.7120 0.2592
vn 0.9294 0.0070 -0.3691
vn 0.9294 0.0069 -0.3691
vn -0.9294 -0.0071 0.3691
vn 0.3691 -0.0001 0.9294
vn 0.6618 -0.7021 -0.2628
vn 0.3594 0.2272 0.9051
vn -0.9319 0.0363 0.3610
vn 0.9256 0.0364 -0.3767
vn 0.3135 -0.5279 0.7893
vn 0.1949 0.8493 0.4906
vn -0.4048 0.1864 0.8952
vn 0.9087 0.1864 0.3736
vn 0.0839 -0.9738 0.2112
vn -0.2405 -0.9659 0.0955
vn -0.6572 -0.7071 0.2610
vn -0.8977 -0.2587 0.3565
vn -0.8977 0.2587 0.3565
vn -0.6572 0.7071 0.2610
vn -0.2405 0.9659 0.0955
vn -0.9932 0.0000 0.1160
vn -0.5971 0.0000 -0.8022
vn 0.1160 0.0000 0.9933
vn -0.8022 0.0000 0.5970
usemtl None
s off
f 9/1/1 8/2/1 4/3/1 7/4/1
f 5/5/1 3/6/1 8/2/1 9/1/1
f 1/7/1 5/5/1 9/1/1 6/8/1
f 6/8/1 9/1/1 7/4/1 2/9/1
f 12/10/2 13/11/2 187/12/2 21/13/2
f 16/14/2 17/15/2 26/16/2 25/17/2
f 11/18/2 12/10/2 21/13/2 20/19/2
f 15/20/2 16/14/2 25/17/2 24/21/2
f 2/9/3 7/4/3 14/22/3 13/11/3
f 3/6/4 5/5/4 10/23/4 17/15/4
f 7/4/5 4/3/5 15/20/5 14/22/5
f 5/5/6 1/7/6 11/18/6 10/23/6
f 4/3/7 8/2/7 16/14/7 15/20/7
f 1/7/8 6/8/8 12/10/8 11/18/8
f 8/2/9 3/6/9 17/15/9 16/14/9
f 6/8/10 2/9/10 13/11/10 12/10/10
f 21/13/10 187/12/10 189/24/10 29/25/10
f 25/17/9 26/16/9 34/26/9 33/27/9
f 20/19/8 21/13/8 29/25/8 28/28/8
f 24/21/7 25/17/7 33/27/7 32/29/7
f 13/11/2 14/22/2 188/30/2 187/12/2
f 17/15/2 10/23/2 19/31/2 26/16/2
f 14/22/2 15/20/2 24/21/2 188/30/2
f 10/23/2 11/18/2 20/19/2 19/31/2
f 32/29/1 33/27/1 176/32/1 175/33/1
f 18/34/11 28/28/11 36/35/11 27/36/11
f 190/37/12 32/29/12 175/33/12 39/38/12
f 34/26/13 18/34/13 27/36/13 78/39/13 42/40/13
f 31/41/2 30/42/2 199/43/2 204/44/2
f 26/16/4 19/31/4 18/34/4 34/26/4
f 188/30/5 24/21/5 32/29/5 190/37/5
f 19/31/6 20/19/6 28/28/6 18/34/6
f 27/36/14 36/35/14 44/45/14 35/46/14 89/47/14
f 39/38/15 175/33/15 177/48/15 47/49/15 76/50/15
f 27/36/16 89/47/16 96/51/16 93/52/16
f 39/38/17 76/50/17 83/53/17 80/54/17
f 28/28/1 29/25/1 37/55/1 36/35/1
f 33/27/18 34/26/18 42/40/18 176/32/18
f 29/25/19 189/24/19 38/56/19 37/55/19
f 189/24/20 190/37/20 39/38/20 74/57/20 38/56/20
f 46/58/21 77/59/21 47/49/21 55/60/21 54/61/21
f 45/62/22 46/58/22 54/61/22 53/63/22
f 178/64/23 50/65/23 58/66/23 57/67/23
f 44/45/2 45/62/2 53/63/2 52/68/2
f 49/69/24 48/70/24 183/71/24 186/72/24
f 36/35/25 37/55/25 45/62/25 44/45/25
f 176/32/26 42/40/26 88/73/26 50/65/26 178/64/26
f 37/55/27 38/56/27 75/74/27 46/58/27 45/62/27
f 57/67/28 58/66/28 165/75/28 164/76/28
f 52/68/29 53/63/29 160/77/29 159/78/29
f 56/79/30 57/67/30 164/76/30 163/80/30
f 43/81/31 52/68/31 159/78/31 158/82/31
f 50/65/32 90/83/32 35/46/32 43/81/32 58/66/32
f 47/49/33 177/48/33 56/79/33 55/60/33
f 35/46/34 44/45/34 52/68/34 43/81/34
f 177/48/2 178/64/2 57/67/2 56/79/2
f 51/84/6 60/85/6 171/86/6 169/87/6
f 63/88/5 64/89/5 173/90/5 170/91/5
f 66/92/4 51/84/4 169/87/4 174/93/4
f 62/94/3 63/88/3 170/91/3 172/95/3
f 53/63/35 54/61/35 161/96/35 160/77/35
f 162/97/36 161/96/36 68/98/36 69/99/36
f 58/66/37 43/81/37 158/82/37 165/75/37
f 55/60/38 56/79/38 163/80/38 162/97/38
f 69/99/39 68/98/39 72/100/39 73/101/39
f 55/60/36 162/97/36 69/99/36 67/102/36
f 161/96/36 54/61/36 59/103/36 68/98/36
f 54/61/36 55/60/36 67/102/36 59/103/36
f 70/104/36 71/105/36 73/101/36 72/100/36
f 68/98/40 59/103/40 70/104/40 72/100/40
f 59/103/41 67/102/41 71/105/41 70/104/41
f 67/102/42 69/99/42 73/101/42 71/105/42
f 47/49/43 77/59/43 85/106/43 84/107/43
f 76/50/44 47/49/44 84/107/44 83/53/44
f 46/58/45 75/74/45 81/108/45 86/109/45
f 87/110/46 83/53/46 84/107/46 85/106/46
f 81/108/47 87/110/47 85/106/47 86/109/47
f 82/111/46 79/112/46 87/110/46 81/108/46
f 79/112/46 80/54/46 83/53/46 87/110/46
f 38/56/48 74/57/48 79/112/48 82/111/48
f 75/74/49 38/56/49 82/111/49 81/108/49
f 77/59/50 46/58/50 86/109/50 85/106/50
f 74/57/51 39/38/51 80/54/51 79/112/51
f 35/46/52 90/83/52 98/113/52 97/114/52
f 89/47/53 35/46/53 97/114/53 96/51/53
f 78/39/54 27/36/54 93/52/54 92/115/54
f 100/116/55 96/51/55 97/114/55 98/113/55
f 94/117/55 100/116/55 98/113/55 99/118/55
f 95/119/55 92/115/55 100/116/55 94/117/55
f 92/115/55 93/52/55 96/51/55 100/116/55
f 42/40/56 78/39/56 92/115/56 95/119/56
f 90/83/57 50/65/57 99/118/57 98/113/57
f 88/73/58 42/40/58 95/119/58 94/117/58
f 50/65/59 88/73/59 94/117/59 99/118/59
f 108/120/8 107/121/8 103/122/8 106/123/8
f 105/124/8 102/125/8 107/121/8 108/120/8
f 91/126/8 105/124/8 108/120/8 104/127/8
f 104/127/8 108/120/8 106/123/8 101/128/8
f 111/129/7 112/130/7 120/131/7 119/132/7
f 114/133/7 115/134/7 123/135/7 122/136/7
f 116/137/7 111/129/7 119/132/7 124/138/7
f 115/134/7 116/137/7 124/138/7 123/135/7
f 101/128/60 106/123/60 113/139/60 110/140/60
f 91/126/61 104/127/61 109/141/61 112/130/61
f 106/123/62 103/122/62 114/133/62 113/139/62
f 104/127/63 101/128/63 110/140/63 109/141/63
f 107/121/64 102/125/64 116/137/64 115/134/64
f 102/125/65 105/124/65 111/129/65 116/137/65
f 103/122/66 107/121/66 115/134/66 114/133/66
f 105/124/67 91/126/67 112/130/67 111/129/67
f 119/132/7 120/131/7 129/142/7 128/143/7
f 122/136/7 123/135/7 132/144/7 131/145/7
f 124/138/7 119/132/7 128/143/7 133/146/7
f 123/135/7 124/138/7 133/146/7 132/144/7
f 110/140/7 113/139/7 121/147/7 118/148/7
f 112/130/7 109/141/7 117/149/7 120/131/7
f 113/139/7 114/133/7 122/136/7 121/147/7
f 109/141/7 110/140/7 118/148/7 117/149/7
f 132/144/68 133/146/68 141/150/68 140/151/68
f 126/152/69 127/153/69 135/154/69 125/155/69
f 130/156/70 131/145/70 139/157/70 138/158/70
f 129/142/71 126/152/71 125/155/71 137/159/71
f 118/148/7 121/147/7 130/156/7 127/153/7
f 120/131/7 117/149/7 126/152/7 129/142/7
f 121/147/7 122/136/7 131/145/7 130/156/7
f 117/149/7 118/148/7 127/153/7 126/152/7
f 125/155/72 135/154/72 142/160/72 134/161/72
f 138/158/7 139/157/7 146/162/7 145/163/7
f 137/159/7 125/155/7 134/161/7 144/164/7
f 135/154/7 138/158/7 145/163/7 142/160/7
f 133/146/73 128/143/73 136/165/73 141/150/73
f 131/145/74 132/144/74 140/151/74 139/157/74
f 128/143/75 129/142/75 137/159/75 136/165/75
f 127/153/76 130/156/76 138/158/76 135/154/76
f 142/160/77 145/163/77 153/166/77 150/167/77
f 143/168/75 144/164/75 152/169/75 151/170/75
f 146/162/74 147/171/74 155/172/74 154/173/74
f 148/174/78 143/168/78 151/170/78 156/175/78
f 140/151/7 141/150/7 148/174/7 147/171/7
f 141/150/7 136/165/7 143/168/7 148/174/7
f 139/157/7 140/151/7 147/171/7 146/162/7
f 136/165/7 137/159/7 144/164/7 143/168/7
f 157/176/7 153/166/7 154/173/7 155/172/7
f 151/170/7 157/176/7 155/172/7 156/175/7
f 152/169/79 149/177/79 157/176/79 151/170/79
f 149/177/7 150/167/7 153/166/7 157/176/7
f 144/164/71 134/161/71 149/177/71 152/169/71
f 145/163/70 146/162/70 154/173/70 153/166/70
f 134/161/80 142/160/80 150/167/80 149/177/80
f 147/171/68 148/174/68 156/175/68 155/172/68
f 60/85/2 51/84/2 158/82/2 159/78/2
f 62/94/2 61/178/2 160/77/2 161/96/2
f 64/89/2 63/88/2 162/97/2 163/80/2
f 66/92/2 65/179/2 164/76/2 165/75/2
f 51/84/2 66/92/2 165/75/2 158/82/2
f 61/178/2 60/85/2 159/78/2 160/77/2
f 63/88/2 62/94/2 161/96/2 162/97/2
f 65/179/2 64/89/2 163/80/2 164/76/2
f 166/180/2 170/91/2 173/90/2 167/181/2
f 169/87/2 166/180/2 167/181/2 174/93/2
f 171/86/2 168/182/2 166/180/2 169/87/2
f 168/182/2 172/95/2 170/91/2 166/180/2
f 64/89/7 65/179/7 167/181/7 173/90/7
f 60/85/8 61/178/8 168/182/8 171/86/8
f 65/179/9 66/92/9 174/93/9 167/181/9
f 61/178/10 62/94/10 172/95/10 168/182/10
f 41/183/81 40/184/81 175/33/81 176/32/81
f 48/70/81 49/69/81 178/64/81 177/48/81
f 40/184/81 48/70/81 177/48/81 175/33/81
f 49/69/81 41/183/81 176/32/81 178/64/81
f 48/70/82 40/184/82 180/185/82 183/71/82
f 41/183/83 49/69/83 186/72/83 181/186/83
f 179/187/81 182/188/81 185/189/81 184/190/81
f 180/185/84 181/186/84 182/188/84 179/187/84
f 184/190/85 185/189/85 186/72/85 183/71/85
f 179/187/86 184/190/86 183/71/86 180/185/86
f 181/186/87 186/72/87 185/189/87 182/188/87
f 40/184/88 41/183/88 181/186/88 180/185/88
f 23/191/3 22/192/3 187/12/3 188/30/3
f 30/42/3 31/41/3 190/37/3 189/24/3
f 22/192/3 30/42/3 189/24/3 187/12/3
f 31/41/3 23/191/3 188/30/3 190/37/3
f 30/42/8 22/192/8 192/193/8 199/43/8
f 23/191/7 31/41/7 204/44/7 195/194/7
f 191/195/3 196/196/3 203/197/3 200/198/3
f 192/193/89 195/194/89 197/199/89 194/200/89
f 194/200/90 197/199/90 198/201/90 193/202/90
f 193/202/91 198/201/91 207/203/91 208/204/91
f 209/205/92 210/206/92 205/207/92 202/208/92
f 202/208/93 205/207/93 206/209/93 201/210/93
f 201/210/94 206/209/94 204/44/94 199/43/94
f 208/204/95 209/205/95 202/208/95 193/202/95
f 193/202/10 202/208/10 201/210/10 194/200/10
f 194/200/96 201/210/96 199/43/96 192/193/96
f 195/194/97 204/44/97 206/209/97 197/199/97
f 197/199/5 206/209/5 205/207/5 198/201/5
f 198/201/98 205/207/98 210/206/98 207/203/98
f 22/192/1 23/191/1 195/194/1 192/193/1
f 196/196/3 191/195/3 208/204/3 207/203/3
f 200/198/3 203/197/3 210/206/3 209/205/3
f 191/195/3 200/198/3 209/205/3 208/204/3
f 203/197/3 196/196/3 207/203/3 210/206/3
f 211/211/4 213/212/4 214/213/4 212/214/4
f 216/215/3 215/216/3 218/217/3 217/218/3
f 214/213/2 213/212/2 217/218/2 218/217/2
f 213/212/8 211/211/8 216/215/8 217/218/8
f 211/211/1 212/214/1 215/216/1 216/215/1
f 212/214/7 214/213/7 218/217/7 215/216/7
f 219/219/4 221/220/4 222/221/4 220/222/4
f 224/223/3 223/224/3 226/225/3 225/226/3
f 222/221/2 221/220/2 225/226/2 226/225/2
f 221/220/8 219/219/8 224/223/8 225/226/8
f 219/219/1 220/222/1 223/224/1 224/223/1
f 220/222/7 222/221/7 226/225/7 223/224/7
f 227/227/4 229/228/4 230/229/4 228/230/4
f 232/231/3 231/232/3 234/233/3 233/234/3
f 230/229/2 229/228/2 233/234/2 234/233/2
f 229/228/8 227/227/8 232/231/8 233/234/8
f 227/227/1 228/230/1 231/232/1 232/231/1
f 228/230/7 230/229/7 234/233/7 231/232/7
